<svg width="13" height="11" viewBox="0 0 13 11" fill="none" xmlns="http://www.w3.org/2000/svg">
<path d="M2.76969 10.8343C3.31217 10.8343 3.76799 10.6575 4.13716 10.3041C4.50633 9.95067 4.69091 9.51556 4.69091 8.99876C4.69091 8.48195 4.50633 8.04561 4.13716 7.68971C3.76799 7.33382 3.31348 7.15587 2.77362 7.15587C2.23373 7.15587 1.77791 7.33259 1.40615 7.68602C1.03439 8.03946 0.848511 8.47458 0.848511 8.99138C0.848511 9.50818 1.03349 9.94453 1.40345 10.3004C1.7734 10.6563 2.22882 10.8343 2.76969 10.8343ZM10.5598 10.8343C11.0996 10.8343 11.5554 10.6575 11.9272 10.3041C12.299 9.95067 12.4848 9.51556 12.4848 8.99876C12.4848 8.48195 12.3002 8.04561 11.931 7.68971C11.5618 7.33382 11.1073 7.15587 10.5675 7.15587C10.0276 7.15587 9.57184 7.33259 9.20008 7.68602C8.82832 8.03946 8.64244 8.47458 8.64244 8.99138C8.64244 9.50818 8.82705 9.94453 9.19626 10.3004C9.56546 10.6563 10.02 10.8343 10.5598 10.8343ZM6.66283 4.11211C7.20266 4.11211 7.65846 3.9354 8.03022 3.58198C8.40198 3.22859 8.58786 2.79348 8.58786 2.27663C8.58786 1.75981 8.40327 1.32345 8.03408 0.967556C7.66489 0.611662 7.21037 0.433716 6.67053 0.433716C6.13069 0.433716 5.67489 0.610789 5.30313 0.964936C4.93137 1.3191 4.74549 1.7551 4.74549 2.27291C4.74549 2.79224 4.93009 3.22859 5.29928 3.58198C5.66847 3.9354 6.12299 4.11211 6.66283 4.11211Z" fill="#FB792B"/>
</svg>
