<svg width="10" height="7" viewBox="0 0 10 7" fill="none" xmlns="http://www.w3.org/2000/svg">
<path d="M4.90276 6.09806C4.81827 6.09806 4.74082 6.08398 4.67041 6.05581C4.60001 6.02765 4.5296 5.97836 4.45919 5.90796L0.276896 1.72566C0.15016 1.59893 0.086792 1.45107 0.086792 1.28209C0.086792 1.11311 0.15016 0.965247 0.276896 0.838511C0.403632 0.711775 0.555012 0.648407 0.731034 0.648407C0.907056 0.648407 1.05844 0.711775 1.18517 0.838511L4.90276 4.5561L8.62036 0.838511C8.74709 0.711775 8.89495 0.648407 9.06393 0.648407C9.23291 0.648407 9.38077 0.711775 9.50751 0.838511C9.63425 0.965247 9.69761 1.11663 9.69761 1.29265C9.69761 1.46867 9.63425 1.62005 9.50751 1.74679L5.34634 5.90796C5.27593 5.97836 5.20552 6.02765 5.13511 6.05581C5.0647 6.08398 4.98725 6.09806 4.90276 6.09806Z" fill="#213D77"/>
</svg>
