<svg width="17" height="12" viewBox="0 0 17 12" fill="none" xmlns="http://www.w3.org/2000/svg">
<path d="M6.34513 9.84857L15.5462 0.647528C15.6994 0.495445 15.8813 0.419403 16.092 0.419403C16.3026 0.419403 16.484 0.495892 16.6361 0.648871C16.7882 0.801833 16.8642 0.983488 16.8642 1.19384C16.8642 1.40417 16.7882 1.58538 16.6361 1.73746L6.87742 11.4961C6.72533 11.6482 6.5479 11.7243 6.34513 11.7243C6.14235 11.7243 5.96492 11.6482 5.81283 11.4961L1.19964 6.88295C1.04756 6.72973 0.975738 6.5478 0.984188 6.33714C0.992637 6.12647 1.07335 5.9451 1.22633 5.79301C1.37929 5.64093 1.56095 5.56489 1.77129 5.56489C1.98163 5.56489 2.16283 5.64093 2.31492 5.79301L6.34513 9.84857Z" fill="#333333"/>
</svg>
