<svg width="21" height="18" viewBox="0 0 21 18" fill="none" xmlns="http://www.w3.org/2000/svg">
<path d="M2.14583 17.2083C1.7276 17.2083 1.36957 17.0594 1.07174 16.7615C0.773915 16.4637 0.625 16.1057 0.625 15.6874V12.3416C0.625 12.1695 0.67147 12.0209 0.76441 11.8957C0.85735 11.7705 0.979861 11.6826 1.13194 11.6319C1.65579 11.446 2.06557 11.1123 2.36128 10.6307C2.657 10.1491 2.80486 9.64213 2.80486 9.10984C2.80486 8.57755 2.657 8.06638 2.36128 7.57633C2.06557 7.08628 1.65579 6.74832 1.13194 6.56244C0.979861 6.51175 0.85735 6.42382 0.76441 6.29865C0.67147 6.17347 0.625 6.02483 0.625 5.85272V2.50689C0.625 2.08866 0.773915 1.73063 1.07174 1.4328C1.36957 1.13497 1.7276 0.986053 2.14583 0.986053H19.3819C19.8002 0.986053 20.1582 1.13497 20.456 1.4328C20.7539 1.73063 20.9028 2.08866 20.9028 2.50689V5.85272C20.9028 6.02483 20.8563 6.17347 20.7634 6.29865C20.6704 6.42382 20.5479 6.51175 20.3958 6.56244C19.872 6.74832 19.4622 7.08628 19.1665 7.57633C18.8708 8.06638 18.7229 8.57755 18.7229 9.10984C18.7229 9.64213 18.8708 10.1491 19.1665 10.6307C19.4622 11.1123 19.872 11.446 20.3958 11.6319C20.5479 11.6826 20.6704 11.7705 20.7634 11.8957C20.8563 12.0209 20.9028 12.1695 20.9028 12.3416V15.6874C20.9028 16.1057 20.7539 16.4637 20.456 16.7615C20.1582 17.0594 19.8002 17.2083 19.3819 17.2083H2.14583ZM2.14583 15.6874H19.3819V12.9246C18.7398 12.4852 18.216 11.9361 17.8104 11.277C17.4049 10.618 17.2021 9.89138 17.2021 9.09716C17.2021 8.30295 17.4049 7.57633 17.8104 6.9173C18.216 6.25828 18.7398 5.70909 19.3819 5.26973V2.50689H2.14583V5.26973C2.80486 5.70909 3.33293 6.25828 3.73003 6.9173C4.12714 7.57633 4.32569 8.30295 4.32569 9.09716C4.32569 9.89138 4.12714 10.618 3.73003 11.277C3.33293 11.9361 2.80486 12.4852 2.14583 12.9246V15.6874ZM10.7639 14.0906C10.9667 14.0906 11.1441 14.0145 11.2962 13.8624C11.4483 13.7104 11.5243 13.5329 11.5243 13.3302C11.5243 13.1274 11.4483 12.9499 11.2962 12.7979C11.1441 12.6458 10.9667 12.5697 10.7639 12.5697C10.5611 12.5697 10.3837 12.6458 10.2316 12.7979C10.0795 12.9499 10.0035 13.1274 10.0035 13.3302C10.0035 13.5329 10.0795 13.7104 10.2316 13.8624C10.3837 14.0145 10.5611 14.0906 10.7639 14.0906ZM10.7639 9.85758C10.9667 9.85758 11.1441 9.78154 11.2962 9.62946C11.4483 9.47737 11.5243 9.29994 11.5243 9.09716C11.5243 8.89439 11.4483 8.71696 11.2962 8.56487C11.1441 8.41279 10.9667 8.33675 10.7639 8.33675C10.5611 8.33675 10.3837 8.41279 10.2316 8.56487C10.0795 8.71696 10.0035 8.89439 10.0035 9.09716C10.0035 9.29994 10.0795 9.47737 10.2316 9.62946C10.3837 9.78154 10.5611 9.85758 10.7639 9.85758ZM10.7639 5.6246C10.9667 5.6246 11.1441 5.54855 11.2962 5.39647C11.4483 5.24439 11.5243 5.06696 11.5243 4.86418C11.5243 4.6614 11.4483 4.48397 11.2962 4.33189C11.1441 4.1798 10.9667 4.10376 10.7639 4.10376C10.5611 4.10376 10.3837 4.1798 10.2316 4.33189C10.0795 4.48397 10.0035 4.6614 10.0035 4.86418C10.0035 5.06696 10.0795 5.24439 10.2316 5.39647C10.3837 5.54855 10.5611 5.6246 10.7639 5.6246Z" fill="white"/>
</svg>
